# AST/ASF file generated using VICON BodyLanguage
# -----------------------------------------------
:version 1.10
:name VICON
:units
  mass 1.0
  length 0.45
  angle deg
:documentation
   .ast/.asf automatically generated from VICON data using
   VICON BodyBuilder and BodyLanguage model FoxedUp or BRILLIANT.MOD
:root
   order TX TY TZ RX RY RZ
   axis XYZ
   position 0 0 0  
   orientation 0 0 0 
:bonedata
  begin
     id 1 
     name lhipjoint
     direction 0.567149 -0.783011 0.255413 
     length 2.28399 
     axis 0 0 0  XYZ
  end
  begin
     id 2 
     name lfemur
     direction 0.34202 -0.939693 0  
     length 7.34031  
     axis 0 0 20  XYZ
    dof rx ry rz
    limits (-160.0 20.0)
           (-70.0 70.0)
           (-60.0 70.0)
  end
  begin
     id 3 
     name ltibia
     direction 0.34202 -0.939693 0   
     length 6.9833   
     axis 0 0 20   XYZ
    dof rx
    limits (-10.0 170.0)
  end
  begin
     id 4 
     name lfoot
     direction 0.136498 -0.375025 0.91691   
     length 2.33665   
     axis -90 7.62852e-016 20   XYZ
    dof rx rz
    limits (-45.0 90.0)
           (-70.0 20.0)
  end
  begin
     id 5 
     name ltoes
     direction 1.5367e-011 -4.21617e-011 1   
     length 1.15039   
     axis -90 7.62852e-016 20   XYZ
    dof rx
    limits (-90.0 20.0)
  end
  begin
     id 6 
     name rhipjoint
     direction -0.602854 -0.758518 0.247423   
     length 2.35775  
     axis 0 0 0  XYZ 
  end
  begin
     id 7 
     name rfemur
     direction -0.34202 -0.939693 0   
     length 7.43932   
     axis 0 0 -20   XYZ
    dof rx ry rz
    limits (-160.0 20.0)
           (-70.0 70.0)
           (-70.0 60.0)
  end
  begin
     id 8 
     name rtibia
     direction -0.34202 -0.939693 0   
     length 7.11893   
     axis 0 0 -20   XYZ
    dof rx
    limits (-10.0 170.0)
 end
 begin
     id 9 
     name rfoot
     direction -0.131771 -0.362037 0.922803   
     length 2.53019  
     axis -90 -7.62852e-016 -20   XYZ
    dof rx rz
    limits (-45.0 90.0)
           (-20.0 70.0)
  end
  begin
     id 10 
     name rtoes
     direction -1.53733e-011 -4.21932e-011 1   
     length 1.24596   
     axis -90 -7.62852e-016 -20   XYZ
    dof rx
    limits (-90.0 20.0)
  end
  begin
     id 11 
     name lowerback
     direction 0.0235427 0.999023 -0.0374125   
     length 2.21768   
     axis 0 0 0   XYZ
    dof rx ry rz
    limits (-20.0 45.0)
           (-30.0 30.0)
           (-30.0 30.0)
  end
  begin
     id 12 
     name upperback
     direction 0.0302156 0.996818 -0.073759   
     length 2.20352   
     axis 0 0 0   XYZ
    dof rx ry rz
    limits (-20.0 45.0)
           (-30.0 30.0)
           (-30.0 30.0)
  end
  begin
     id 13 
     name thorax
     direction 0.0187169 0.998235 -0.0563532   
     length 2.22103   
     axis 0 0 0   XYZ
    dof rx ry rz
    limits (-20.0 45.0)
           (-30.0 30.0)
           (-30.0 30.0)
  end
  begin
     id 14 
     name lowerneck
     direction -0.119528 0.987423 0.103481   
     length 1.72948   
     axis 0 0 0   XYZ
    dof rx ry rz
    limits (-20.0 45.0)
           (-30.0 30.0)
           (-30.0 30.0)
  end
  begin
     id 15 
     name upperneck
     direction 0.248049 0.963095 -0.104496   
     length 1.74979   
     axis 0 0 0   XYZ
    dof rx ry rz
    limits (-20.0 45.0)
           (-30.0 30.0)
           (-30.0 30.0)
  end
  begin
     id 16
     name head
     direction 0.0903589 0.994284 -0.056876  
     length 1.78268  
     axis 0 0 0   XYZ
    dof rx ry rz
    limits (-20.0 45.0)
           (-30.0 30.0)
           (-30.0 30.0)
  end
  begin
     id 17 
     name lclavicle
     direction 0.946008 0.242039 -0.215608  
     length 3.80783  
     axis 0 0 0   XYZ
    dof ry rz
    limits (-20.0 10.0)
           (0.0 20.0)
  end
  begin
     id 18 
     name lhumerus
     direction 1 -4.48991e-011 -2.25695e-027   
     length 4.83125   
     axis 180 -30 -90   XYZ
    dof rx ry rz
    limits (-60.0 90.0)
           (-90.0 90.0)
           (-90.0 90.0)
  end
  begin
     id 19
     name lradius
     direction 0.999991 0.00366712 -0.00211721   
     length 3.00391   
     axis 180 -30 -90   XYZ
    dof rx
    limits (-10.0 170.0)
  end
  begin
     id 20
     name lwrist
     direction 0.999991 0.00393016 -0.00141978   
     length 1.50195   
     axis -1.00488e-014 90 90   XYZ
    dof ry
    limits (-180.0 0.0)
 end
  begin
     id 21 
     name lhand
     direction 1 -4.49123e-011 2.72098e-026   
     length 1.2717   
     axis -1.73687e-014 90 90   XYZ
    dof rx rz
    limits (-90.0 90.0)
           (-45.0 45.0)
  end
  begin
     id 22 
     name lfingers
     direction 1 -4.48678e-011 5.4479e-026   
     length 1.02528   
     axis -3.47372e-014 90 90   XYZ
    dof rx
    limits (0.0 90.0)
  end
  begin
     id 23
     name lthumb
     direction 0.707107 -6.34851e-011 0.707107   
     length 1.4721   
     axis -90 45 -1.62303e-014   XYZ
    dof rx rz
    limits (-45.0 45.0)
           (-45.0 45.0)
  end
  begin
     id 24 
     name rclavicle
     direction -0.981723 0.189447 -0.0181673   
     length 3.74989  
     axis 0 0 0   XYZ 
    dof ry rz
    limits (-10.0 20.0)
           (-20.0 0.0)
  end
  begin
     id 25 
     name rhumerus
     direction -1 -4.48985e-011 2.38206e-027  
     length 4.61118   
     axis 180 30 90   XYZ
    dof rx ry rz
    limits (-90.0 60.0)
           (-90.0 90.0)
           (-90.0 90.0)
  end
  begin
     id 26 
     name rradius
     direction -1 -4.48977e-011 7.41019e-027   
     length 2.91491   
     axis 180 30 90   XYZ
    dof rx
    limits (-10.0 170.0)
  end
  begin
     id 27 
     name rwrist
     direction -1 -4.48549e-011 1.3624e-026   
     length 1.45745   
     axis -1.00488e-014 -90 -90   XYZ
    dof ry
    limits (-180.0 0.0)
  end
  begin
     id 28
     name rhand
     direction -1 -4.49107e-011 2.72109e-026   
     length 1.30769   
     axis -1.73687e-014 -90 -90   XYZ
    dof rx rz
    limits (-90.0 90.0)
           (-45.0 45.0)
  end
  begin
     id 29
     name rfingers
     direction -1 -4.48919e-011 5.44468e-026   
     length 1.05429   
     axis -3.47372e-014 -90 -90   XYZ
    dof rx
    limits (0.0 90.0)
  end
  begin
     id 30
     name rthumb
     direction -0.707107 -6.35315e-011 0.707107   
     length 1.51376   
     axis -90 -45 1.62303e-014   XYZ
    dof rx rz
    limits (-45.0 45.0)
           (-45.0 45.0)
  end
:hierarchy
  begin
    root lhipjoint rhipjoint lowerback
    lhipjoint lfemur
    lfemur ltibia
    ltibia lfoot
    lfoot ltoes
    rhipjoint rfemur
    rfemur rtibia
    rtibia rfoot
    rfoot rtoes
    lowerback upperback
    upperback thorax
    thorax lowerneck lclavicle rclavicle
    lowerneck upperneck
    upperneck head
    lclavicle lhumerus
    lhumerus lradius
    lradius lwrist
    lwrist lhand lthumb
    lhand lfingers
    rclavicle rhumerus
    rhumerus rradius
    rradius rwrist
    rwrist rhand rthumb
    rhand rfingers
  end

#!OML:ASF X:\für Bonn\!DataBase\2005_08_11_Bastian_Final\c3d\Bastian.ASF
:FULLY-SPECIFIED
:DEGREES
16
root -10.3253 17.0009 8.71729 532.297 32.9994 -171.034
lowerback 29.1072 -4.75306 6.10759
upperback 18.503 -0.0150584 3.6143
thorax 4.96687 2.20821 0.742087
lowerneck -10.876 -14.2046 -25.6068
upperneck -9.49854 -15.6948 31.5907
head 4.30939 -6.69767 13.1055
rclavicle 1.59028e-015 1.00983e-013
rhumerus -12.2122 12.3473 -82.3536
rradius 50.5359
rwrist 7.61311
rhand -15.1034 5.60468
rfingers 7.12502
rthumb 11.065 -24.0836
lclavicle 1.59028e-015 1.00983e-013
lhumerus -6.64183 -20.0897 -273.788
lradius 15.2972
lwrist -350.62
lhand -16.3842 -5.12898
lfingers 7.12502
lthumb 9.82946 24.6216
rfemur -1.1882 -9.55288 31.8941
rtibia 42.7399
rfoot -19.1971 -4.53749
rtoes -10.4831
lfemur -43.1468 -1.69154 -10.8512
ltibia 82.2571
lfoot 3.5213 -8.24697
ltoes -34.1111
17
root -10.2528 17.0057 8.64934 532.191 32.9771 -170.984
lowerback 28.8555 -4.62867 5.99833
upperback 18.5087 0.0674691 3.52701
thorax 5.08598 2.23985 0.688159
lowerneck -11.013 -14.2499 -25.623
upperneck -9.22562 -15.7888 31.641
head 4.44407 -6.72872 13.0989
rclavicle -1.55052e-014 8.34896e-015
rhumerus -12.1705 12.3724 -82.4897
rradius 50.4863
rwrist 7.77169
rhand -15.3242 5.71988
rfingers 7.12502
rthumb 10.8521 -23.9797
lclavicle -1.55052e-014 8.34896e-015
lhumerus -7.2005 -20.2529 -273.637
lradius 14.5549
lwrist -350.518
lhand -16.2021 -4.96611
lfingers 7.12502
lthumb 10.0052 24.7761
rfemur -0.363979 -9.17821 32.1202
rtibia 42.1346
rfoot -19.4064 -5.01262
rtoes -10.0822
lfemur -43.3237 -1.7433 -10.9997
ltibia 80.973
lfoot 3.51114 -8.49746
ltoes -34.783
18
root -10.1787 17.0096 8.57909 532.068 32.9442 -170.984
lowerback 28.5869 -4.49585 5.85244
upperback 18.494 0.142483 3.41866
thorax 5.18782 2.26106 0.632219
lowerneck -11.0928 -14.2738 -25.6075
upperneck -8.97812 -15.8643 31.6962
head 4.55555 -6.75644 13.096
rclavicle -1.70955e-014 8.34896e-014
rhumerus -12.222 12.3308 -82.6919
rradius 50.4587
rwrist 7.99302
rhand -15.5091 5.82707
rfingers 7.12502
rthumb 10.6737 -23.8818
lclavicle -1.70955e-014 8.34896e-014
lhumerus -7.8332 -20.4439 -273.475
lradius 13.8636
lwrist -350.386
lhand -16.0396 -4.88478
lfingers 7.12502
lthumb 10.1619 24.8498
rfemur 0.434264 -8.8339 32.2926
rtibia 41.5828
rfoot -19.6552 -5.41313
rtoes -9.55837
lfemur -43.4273 -1.8294 -11.1791
ltibia 79.6223
lfoot 3.55445 -8.74524
ltoes -35.5049
19
root -10.1057 17.0109 8.50744 531.966 32.9185 -170.98
lowerback 28.2631 -4.36673 5.74377
upperback 18.479 0.212852 3.29322
thorax 5.31486 2.28321 0.539069
lowerneck -11.1121 -14.2812 -25.5957
upperneck -8.75766 -15.9261 31.7743
head 4.64992 -6.78279 13.1094
rclavicle -1.59028e-015 -9.26337e-014
rhumerus -12.3512 12.3367 -82.8866
rradius 50.568
rwrist 8.10155
rhand -15.6814 5.82597
rfingers 7.12502
rthumb 10.5075 -23.8914
lclavicle -1.59028e-015 -9.26337e-014
lhumerus -8.49277 -20.8404 -273.312
lradius 13.2233
lwrist -350.002
lhand -15.9146 -4.76852
lfingers 7.12502
lthumb 10.2825 24.9601
rfemur 1.18771 -8.53457 32.448
rtibia 41.0849
rfoot -19.9385 -5.75374
rtoes -8.79342
lfemur -43.4776 -1.95304 -11.3246
ltibia 78.2197
lfoot 3.76411 -8.97702
ltoes -35.66
20
root -10.0325 17.0104 8.43359 531.852 32.9186 -171.04
lowerback 27.893 -4.21509 5.57285
upperback 18.4696 0.290593 3.15166
thorax 5.47024 2.3027 0.462874
lowerneck -11.1664 -14.295 -25.5981
upperneck -8.495 -15.9984 31.8806
head 4.77087 -6.81009 13.1327
rclavicle -1.05753e-013 1.45908e-013
rhumerus -12.5481 12.3725 -83.0989
rradius 50.7851
rwrist 8.22332
rhand -15.8021 5.74777
rfingers 7.12502
rthumb 10.3911 -23.9755
lclavicle -1.05753e-013 1.45908e-013
lhumerus -9.19987 -21.4986 -273.128
lradius 12.6824
lwrist -349.311
lhand -15.8241 -4.66254
lfingers 7.12502
lthumb 10.3699 25.0618
rfemur 1.90376 -8.23554 32.5412
rtibia 40.6412
rfoot -20.242 -6.04231
rtoes -8.21918
lfemur -43.4552 -2.07446 -11.5063
ltibia 76.7412
lfoot 4.10835 -9.219
ltoes -35.5437
21
root -9.95977 17.0073 8.35849 531.725 32.9271 -171.154
lowerback 27.4908 -4.05399 5.36998
upperback 18.4448 0.364218 2.98819
thorax 5.62253 2.31432 0.381467
lowerneck -11.1428 -14.2801 -25.5588
upperneck -8.28105 -16.0412 31.9606
head 4.84936 -6.83128 13.1492
rclavicle -1.27222e-014 2.3059e-014
rhumerus -12.8326 12.3905 -83.3318
rradius 51.0858
rwrist 8.28719
rhand -15.8447 5.71238
rfingers 7.12502
rthumb 10.3499 -24.0129
lclavicle -1.27222e-014 2.3059e-014
lhumerus -9.96894 -22.3171 -272.922
lradius 12.2098
lwrist -348.371
lhand -15.6902 -4.61448
lfingers 7.12502
lthumb 10.499 25.1033
rfemur 2.57693 -7.98905 32.5623
rtibia 40.2401
rfoot -20.5465 -6.26126
rtoes -7.78513
lfemur -43.3773 -2.23338 -11.7134
ltibia 75.192
lfoot 4.58769 -9.46711
ltoes -35.3583
22
root -9.8868 17.008 8.28237 531.617 32.9791 -171.261
lowerback 27.0417 -3.87554 5.1591
upperback 18.4243 0.45462 2.83324
thorax 5.80318 2.33208 0.312643
lowerneck -11.0459 -14.2538 -25.5732
upperneck -8.10433 -16.074 32.073
head 4.91224 -6.85368 13.1944
rclavicle -5.52621e-014 1.74931e-014
rhumerus -13.129 12.4378 -83.5693
rradius 51.3706
rwrist 8.33355
rhand -15.8865 5.6366
rfingers 7.12502
rthumb 10.3097 -24.0907
lclavicle -5.52621e-014 1.74931e-014
lhumerus -10.8 -23.1719 -272.664
lradius 11.8597
lwrist -347.387
lhand -15.5785 -4.47234
lfingers 7.12502
lthumb 10.6068 25.24
rfemur 3.2367 -7.76439 32.57
rtibia 39.8702
rfoot -20.8292 -6.41472
rtoes -7.32336
lfemur -43.2072 -2.38837 -11.8848
ltibia 73.547
lfoot 5.16668 -9.66622
ltoes -35.3387
23
root -9.81473 17.0087 8.20504 531.514 33.0352 -171.395
lowerback 26.5799 -3.70219 4.96783
upperback 18.3987 0.54253 2.64113
thorax 5.98584 2.35167 0.193788
lowerneck -10.9973 -14.2482 -25.5651
upperneck -7.88766 -16.1381 32.2175
head 5.00672 -6.88579 13.2391
rclavicle 1.5704e-014 -6.16232e-014
rhumerus -13.4527 12.4409 -83.8393
rradius 51.7132
rwrist 8.34252
rhand -15.8275 5.61747
rfingers 7.12502
rthumb 10.3666 -24.107
lclavicle 1.5704e-014 -6.16232e-014
lhumerus -11.6703 -24.236 -272.403
lradius 11.5788
lwrist -346.219
lhand -15.4578 -4.34138
lfingers 7.12502
lthumb 10.7232 25.3649
rfemur 3.86339 -7.57637 32.5343
rtibia 39.533
rfoot -21.1204 -6.51704
rtoes -6.93289
lfemur -42.9886 -2.57798 -12.0581
ltibia 71.8339
lfoot 5.82223 -9.82511
ltoes -35.6404
24
root -9.74265 17.007 8.12584 531.443 33.1179 -171.501
lowerback 26.0717 -3.5299 4.78155
upperback 18.3825 0.629934 2.46664
thorax 6.20328 2.37057 0.094912
lowerneck -10.9099 -14.2317 -25.6094
upperneck -7.71631 -16.1806 32.3716
head 5.08198 -6.91028 13.3047
rclavicle 2.28602e-014 -1.8487e-014
rhumerus -13.7645 12.5299 -84.0767
rradius 52.0822
rwrist 8.25053
rhand -15.7008 5.60811
rfingers 7.12502
rthumb 10.4888 -24.1102
lclavicle 2.28602e-014 -1.8487e-014
lhumerus -12.5278 -24.9765 -272.125
lradius 11.3421
lwrist -345.276
lhand -15.254 -4.25806
lfingers 7.12502
lthumb 10.9197 25.438
rfemur 4.46749 -7.39744 32.5114
rtibia 39.2109
rfoot -21.3804 -6.53109
rtoes -6.43457
lfemur -42.732 -2.78319 -12.1607
ltibia 70.0768
lfoot 6.55822 -9.99668
ltoes -36.2468
25
root -9.67006 17.0017 8.04563 531.4 33.203 -171.578
lowerback 25.5894 -3.36497 4.61983
upperback 18.3295 0.709812 2.28958
thorax 6.36635 2.38296 -0.0208163
lowerneck -10.8201 -14.2056 -25.6515
upperneck -7.4869 -16.2248 32.5192
head 5.1727 -6.93615 13.3682
rclavicle -2.84262e-014 7.2954e-014
rhumerus -14.1315 12.5871 -84.3515
rradius 52.4296
rwrist 8.22886
rhand -15.5525 5.67719
rfingers 7.12502
rthumb 10.6318 -24.0338
lclavicle -2.84262e-014 7.2954e-014
lhumerus -13.4799 -25.9098 -271.775
lradius 11.166
lwrist -344.105
lhand -15.1315 -4.10261
lfingers 7.12502
lthumb 11.0379 25.5872
rfemur 5.03446 -7.28699 32.492
rtibia 38.939
rfoot -21.6107 -6.53029
rtoes -6.09596
lfemur -42.4389 -3.02799 -12.1981
ltibia 68.3027
lfoot 7.27752 -10.2694
ltoes -37.5654
26
root -9.59583 16.995 7.96464 531.402 33.3163 -171.596
lowerback 25.093 -3.19209 4.50175
upperback 18.2833 0.813458 2.12536
thorax 6.54775 2.41214 -0.148821
lowerneck -10.74 -14.2009 -25.7251
upperneck -7.2825 -16.291 32.7135
head 5.27495 -6.96996 13.451
rclavicle -6.59965e-014 7.95139e-015
rhumerus -14.4817 12.6358 -84.6256
rradius 52.8031
rwrist 8.1376
rhand -15.3651 5.71177
rfingers 7.12502
rthumb 10.8126 -23.9899
lclavicle -6.59965e-014 7.95139e-015
lhumerus -14.4158 -26.5918 -271.446
lradius 11.0349
lwrist -343.183
lhand -14.9295 -4.05211
lfingers 7.12502
lthumb 11.2327 25.6272
rfemur 5.58561 -7.1569 32.5309
rtibia 38.696
rfoot -21.8292 -6.50373
rtoes -5.89317
lfemur -42.1122 -3.28842 -12.117
ltibia 66.5368
lfoot 8.03725 -10.5201
ltoes -38.9428
27
root -9.52205 16.9865 7.88195 531.383 33.421 -171.675
lowerback 24.5931 -3.02028 4.34678
upperback 18.2316 0.910014 1.9403
thorax 6.72604 2.4344 -0.276445
lowerneck -10.6817 -14.2107 -25.7931
upperneck -7.07075 -16.3762 32.9143
head 5.38953 -7.01042 13.5308
rclavicle 5.63555e-014 -2.49475e-014
rhumerus -14.8247 12.7459 -84.889
rradius 53.1838
rwrist 8.01444
rhand -15.1868 5.79498
rfingers 7.12502
rthumb 10.9846 -23.8976
lclavicle 5.63555e-014 -2.49475e-014
lhumerus -15.3417 -26.8236 -271.176
lradius 10.9434
lwrist -342.718
lhand -14.7147 -4.04315
lfingers 7.12502
lthumb 11.4399 25.6247
rfemur 6.10631 -7.09357 32.4849
rtibia 38.4946
rfoot -22.0394 -6.44504
rtoes -5.93837
lfemur -41.7557 -3.59627 -12.0553
ltibia 64.7803
lfoot 8.94584 -10.6337
ltoes -39.8131
28
root -9.44769 16.9758 7.79833 531.428 33.5596 -171.662
lowerback 24.0809 -2.86217 4.26355
upperback 18.1741 1.00246 1.77201
thorax 6.90645 2.45975 -0.423382
lowerneck -10.6158 -14.2182 -25.8989
upperneck -6.84743 -16.4605 33.1085
head 5.5085 -7.05109 13.6165
rclavicle -1.50082e-013 6.10269e-014
rhumerus -15.1758 12.8633 -85.153
rradius 53.5767
rwrist 7.91052
rhand -14.996 5.81307
rfingers 7.12502
rthumb 11.1686 -23.8697
lclavicle -1.50082e-013 6.10269e-014
lhumerus -16.2767 -26.8469 -270.924
lradius 10.8993
lwrist -342.449
lhand -14.56 -4.09969
lfingers 7.12502
lthumb 11.5891 25.5599
rfemur 6.60829 -7.04826 32.5071
rtibia 38.3051
rfoot -22.2025 -6.31461
rtoes -5.87144
lfemur -41.3865 -3.9239 -11.8491
ltibia 63.0636
lfoot 9.99163 -10.5505
ltoes -39.9798
